<svg width="100" height="100" viewBox="0 0 100 100" fill="none" xmlns="http://www.w3.org/2000/svg">
<rect width="100" height="100" fill="#F40404"/>
<path d="M50.925 71V26.9H72.156C76.272 26.9 79.821 27.572 82.803 28.916C85.827 30.26 88.158 32.192 89.796 34.712C91.434 37.19 92.253 40.13 92.253 43.532C92.253 46.934 91.434 49.874 89.796 52.352C88.158 54.83 85.827 56.762 82.803 58.148C79.821 59.492 76.272 60.164 72.156 60.164H59.178L65.793 53.801V71H50.925ZM65.793 55.439L59.178 48.698H71.211C73.269 48.698 74.781 48.236 75.747 47.312C76.755 46.388 77.259 45.128 77.259 43.532C77.259 41.936 76.755 40.676 75.747 39.752C74.781 38.828 73.269 38.366 71.211 38.366H59.178L65.793 31.625V55.439Z" fill="white"/>
<path d="M8.28483 63.3256C0.20089 49.8468 15.4006 26.6197 25.3628 18.6667C34.4355 26.0079 49.9124 48.6451 41.9075 63.3256C36.5703 73.1138 14.1553 73.1138 8.28483 63.3256Z" fill="white"/>
<path d="M21.0418 76.9679C10.7531 59.8947 30.0982 30.4738 42.7773 20.4C54.3244 29.6988 74.0223 58.3726 63.8343 76.9679C57.0414 89.3663 28.5133 89.3663 21.0418 76.9679Z" fill="white" stroke="#F40404" stroke-width="2"/>
</svg>
